# xmcd
#
# Track frame offsets:
#	150
#	11478
#	23713
#	34518
#	46783
#	60743
#	73963
#	88378
#	100050
#	114783
#	124705
#	136515
#	150163
#	161193
#	173615
#	187905
#	199503
#	211228
#	221795
#
# Disc length: 3155 seconds
#
# Revision: 1
# Processed by: cddbd v1.5.2PL0 Copyright (c) Steve Scherf et al.
# Submitted via: EZCDAudioConverter 6.0.2.1
#
DISCID=f10c5113
DTITLE=Various Artist - Old Style Love Song 12
DYEAR=1900
DGENRE=Other
TTITLE0=Del Shannon - Runaway
TTITLE1=Connie Francis - Everybody's Somebody's Fool
TTITLE2=Little Eva - The Loco-Motion
TTITLE3=Shirelles - Baby It's you
TTITLE4=Herman's Hermits - I Understand
TTITLE5=Tony Bennett - I Left My Heart in San Francisco
TTITLE6=Pat Boone - The Exodus Song
TTITLE7=Pat Boone - Speedy Gonzales
TTITLE8=Cliff Richard - The Young One
TTITLE9=Cliff Richard - Summer Holiday
TTITLE10=Roy Orbison - Dream Baby
TTITLE11=Roy Orbison - Oh, Pretty Woman
TTITLE12=Bobby Vinton - Blue on Blue
TTITLE13=Bobby Vinton - Mr Lonely
TTITLE14=Kyu Sakamoto - Sukiyaki
TTITLE15=Eartha Kitt - -Sho-Jo-Ji
TTITLE16=Eddye Gorme - Blame it on the Bossa Nova
TTITLE17=Lesley Gore - It's My Party
TTITLE18=Connie Francis - Al-Di-La_Connie Francis.mp3
EXTD=
EXTT0=
EXTT1=
EXTT2=
EXTT3=
EXTT4=
EXTT5=
EXTT6=
EXTT7=
EXTT8=
EXTT9=
EXTT10=
EXTT11=
EXTT12=
EXTT13=
EXTT14=
EXTT15=
EXTT16=
EXTT17=
EXTT18=
PLAYORDER=
